<svg width="34" height="34" viewBox="0 0 34 34" fill="none" xmlns="http://www.w3.org/2000/svg">
<g clip-path="url(#clip0_2_926)">
<ellipse cx="23" cy="11.5" rx="8" ry="7.5" fill="#D4FFD6"/>
<rect x="3" y="10" width="18" height="11" fill="#D4FFD6"/>
<path d="M24.565 1.60083C20.4 0.82166 16.5891 2.66333 14.4783 5.73749C14.4925 5.72333 14.4925 5.70916 14.5066 5.69499C13.94 5.66666 13.345 5.66666 12.75 5.66666C6.48829 5.66666 1.41663 6.37499 1.41663 11.3333V25.5C1.41663 26.7467 1.96913 27.8658 2.83329 28.645V30.4583C2.83329 31.6342 3.78246 32.5833 4.95829 32.5833C6.13413 32.5833 7.08329 31.6342 7.08329 30.4583V29.75H18.4166V30.4583C18.4166 31.62 19.3658 32.5833 20.5416 32.5833C21.7033 32.5833 22.6666 31.6342 22.6666 30.4583V28.645C23.5308 27.8658 24.0833 26.7467 24.0833 25.5V21.1367C29.3533 20.3717 33.2916 15.4983 32.47 9.84583C31.875 5.73749 28.645 2.35166 24.565 1.60083ZM6.37496 26.9167C5.19913 26.9167 4.24996 25.9675 4.24996 24.7917C4.24996 23.6158 5.19913 22.6667 6.37496 22.6667C7.55079 22.6667 8.49996 23.6158 8.49996 24.7917C8.49996 25.9675 7.55079 26.9167 6.37496 26.9167ZM4.24996 18.4167V11.3333H12.75C12.75 14.11 13.8975 16.6175 15.7391 18.4167H4.24996ZM19.125 26.9167C17.9491 26.9167 17 25.9675 17 24.7917C17 23.6158 17.9491 22.6667 19.125 22.6667C20.3008 22.6667 21.25 23.6158 21.25 24.7917C21.25 25.9675 20.3008 26.9167 19.125 26.9167ZM22.6666 18.4167C18.7566 18.4167 15.5833 15.2433 15.5833 11.3333C15.5833 7.42333 18.7566 4.24999 22.6666 4.24999C26.5766 4.24999 29.75 7.42333 29.75 11.3333C29.75 15.2433 26.5766 18.4167 22.6666 18.4167ZM22.3125 5.66666C21.7316 5.66666 21.25 6.14833 21.25 6.72916V11.9425C21.25 12.4383 21.5191 12.9058 21.9441 13.1608L25.5141 15.3C25.9958 15.5833 26.6191 15.4275 26.9025 14.96C27.2 14.4783 27.0441 13.8408 26.5483 13.5575L23.375 11.6875V6.72916C23.375 6.14833 22.8933 5.66666 22.3125 5.66666Z" fill="#00A824"/>
</g>
<defs>
<clipPath id="clip0_2_926">
<rect width="34" height="34" fill="white"/>
</clipPath>
</defs>
</svg>
